<?xml version="1.0" encoding="iso-8859-1"?>
<!-- Uploaded to: SVG Repo, www.svgrepo.com, Generator: SVG Repo Mixer Tools -->
<svg fill="#000000" height="800px" width="800px" version="1.1" id="Layer_1" xmlns="http://www.w3.org/2000/svg" xmlns:xlink="http://www.w3.org/1999/xlink" 
	 viewBox="0 0 508.448 508.448" xml:space="preserve">
<g>
	<g>
		<path d="M484.448,71.178v-9.6c0-2.048,0.24-3.976,0.24-3.976L222.504,29.434c-0.46-0.048,0.064,0.028-0.36,0.124
			C199.16,11.842,170.88,1.27,139.684,1.27C64.604,1.27,0,62.35,0,137.418c0,56.6,32.448,105.228,80.448,125.736v173.992
			c0,11.028,16.508,22.032,27.54,22.032h4.336l3.844,44.236c0.18,2.068,1.916,3.764,3.984,3.764h7.836
			c2.08,0,3.812-1.712,3.984-3.78l3.688-44.22h36.672c11.024,0,12.116-11.004,12.116-22.032v-93.968h16c0,0,0-3.552,0-5.756v-52.368
			c0-1.451,0-1.804,0-1.876h-16v-20.056c12-4.616,25.348-10.628,34.724-17.856c0.28,0.068,2.528,0.16,2.832,0.16
			c0.14,0,1.272-0.008,1.42-0.024l260.768-28.164c0,0,0.252-1.928,0.252-3.976v-6.084h24c0,0,0-3.452,0-5.664V73.326
			c0.004-2.212,0.004-2.148,0.004-2.148H484.448z M104.244,51.178h71.82c4.42,0,8,3.584,8,8c0,4.416-3.58,8-8,8h-71.82
			c-4.42,0-8-3.584-8-8C96.244,54.762,99.824,51.178,104.244,51.178z M61.652,91.178H218.66c4.42,0,8,3.584,8,8c0,4.416-3.58,8-8,8
			H61.652c-4.416,0-8-3.584-8-8C53.652,94.762,57.236,91.178,61.652,91.178z M176.064,227.178h-71.82c-4.42,0-8-3.584-8-8
			s3.58-8,8-8h71.82c4.42,0,8,3.584,8,8S180.484,227.178,176.064,227.178z M218.66,187.178H61.652c-4.416,0-8-3.584-8-8s3.584-8,8-8
			H218.66c4.42,0,8,3.584,8,8S223.08,187.178,218.66,187.178z M228.176,147.178H52.136c-4.42,0-8-3.584-8-8s3.58-8,8-8h176.04
			c4.42,0,8,3.584,8,8S232.596,147.178,228.176,147.178z"/>
	</g>
</g>
</svg>