<?xml version="1.0" encoding="iso-8859-1"?>
<!-- Uploaded to: SVG Repo, www.svgrepo.com, Generator: SVG Repo Mixer Tools -->
<svg fill="#000000" version="1.1" id="Layer_1" xmlns="http://www.w3.org/2000/svg" xmlns:xlink="http://www.w3.org/1999/xlink" 
	 viewBox="0 0 511.8 511.8" xml:space="preserve">
<g>
	<g>
		<g>
			<path d="M189.65,35.3c-4.9,0-8.8,3.9-8.8,8.8v17.7c0,4.9,3.9,8.8,8.8,8.8c4.9,0,8.8-3.9,8.8-8.8V44.1
				C198.45,39.3,194.55,35.3,189.65,35.3z"/>
			<path d="M286.75,95V38.1c0-21-17.1-38.1-38.1-38.1h-65.1c-21,0-38.1,17.1-38.1,38.1V95l-31.9,63.9h205.1L286.75,95z M269.05,88.3
				h-105.9V38.1c0-11.3,9.2-20.4,20.4-20.4h65.1c11.3,0,20.4,9.2,20.4,20.4V88.3z"/>
			<rect x="163.15" y="247.1" width="105.9" height="88.3"/>
			<path d="M348.55,176.5h-26.5h-8.8h-203V406h194.2v8.8c0,4.9,3.9,8.8,8.8,8.8h-203v49.9c0,21.2,17.2,38.3,38.3,38.3h135.2
				c21.2,0,38.3-17.2,38.3-38.3v-49.9h26.5c29.2,0,53-23.8,53-53V229.5C401.55,200.3,377.75,176.5,348.55,176.5z M286.75,344.3
				c0,4.9-3.9,8.8-8.8,8.8h-123.6c-4.9,0-8.8-3.9-8.8-8.8v-106c0-4.9,3.9-8.8,8.8-8.8h123.6c4.9,0,8.8,3.9,8.8,8.8V344.3z
				 M322.05,229.5h26.5v141.2h-26.5V229.5z M383.85,370.8c0,19.5-15.8,35.3-35.3,35.3h-26.5v-17.7h26.5c9.7,0,17.7-7.9,17.7-17.7
				V229.5c0-9.7-7.9-17.7-17.7-17.7h-26.5v-17.7h26.5c19.5,0,35.3,15.8,35.3,35.3V370.8z"/>
		</g>
	</g>
</g>
</svg>